<?xml version="1.0" encoding="UTF-8" standalone="no"?>
<!-- Created with Inkscape (http://www.inkscape.org/) -->

<svg
   sodipodi:docname="front-text.svg"
   id="svg5"
   version="1.1"
   viewBox="0 0 210 297"
   height="297mm"
   width="210mm"
   inkscape:version="1.1.2 (b8e25be833, 2022-02-05)"
   xmlns:inkscape="http://www.inkscape.org/namespaces/inkscape"
   xmlns:sodipodi="http://sodipodi.sourceforge.net/DTD/sodipodi-0.dtd"
   xmlns="http://www.w3.org/2000/svg"
   xmlns:svg="http://www.w3.org/2000/svg">
  <sodipodi:namedview
     id="namedview7"
     pagecolor="#ffffff"
     bordercolor="#666666"
     borderopacity="1.0"
     inkscape:pageshadow="2"
     inkscape:pageopacity="0.0"
     inkscape:pagecheckerboard="0"
     inkscape:document-units="mm"
     showgrid="true"
     inkscape:zoom="1.63"
     inkscape:cx="264.11043"
     inkscape:cy="209.81595"
     inkscape:window-width="1623"
     inkscape:window-height="1003"
     inkscape:window-x="50"
     inkscape:window-y="18"
     inkscape:window-maximized="1"
     inkscape:current-layer="layer1"
     showguides="false">
    <inkscape:grid
       type="xygrid"
       id="grid824" />
  </sodipodi:namedview>
  <defs
     id="defs2" />
  <g
     inkscape:label="Layer 1"
     inkscape:groupmode="layer"
     id="layer1">
    <g
       inkscape:label="Hershey Text"
       style="fill:none;stroke:#000000;stroke-linecap:round;stroke-linejoin:round"
       id="g17971">
      <g
         transform="translate(20,25)"
         id="g17653">
        <path
           d="M 346,662 V 0 M 126,662 h 441"
           style="stroke-width:0.9689in"
           transform="scale(0.00282222,-0.00282222)"
           id="path17645" />
        <path
           d="m 189,662 31,-32 32,32 -32,31 -31,-31 M 220,441 V 0"
           style="stroke-width:0.9689in"
           transform="matrix(0.00282222,0,0,-0.00282222,1.4224,0)"
           id="path17647" />
        <path
           d="M 220,441 V 0 m 0,315 95,95 63,31 h 94 l 64,-31 31,-95 V 0 m 0,315 95,95 62,31 h 95 l 63,-31 32,-95 V 0"
           style="stroke-width:0.9689in"
           transform="matrix(0.00282222,0,0,-0.00282222,2.1336,0)"
           id="path17649" />
        <path
           d="m 189,252 h 378 v 63 l -31,63 -32,32 -63,31 H 346 L 284,410 220,346 189,252 V 189 L 220,94.5 284,31.5 346,0 h 95 l 63,31.5 63,63"
           style="stroke-width:0.9689in"
           transform="matrix(0.00282222,0,0,-0.00282222,4.8006,0)"
           id="path17651" />
      </g>
      <g
         transform="translate(20,28.5278)"
         id="g17669">
        <path
           d="m 630,567 -63,63 -95,32 H 346 l -94,-32 -63,-63 v -63 l 31,-63 32,-31 63,-32 189,-63 63,-31 31,-32 32,-63 V 94.5 L 567,31.5 472,0 H 346 l -94,31.5 -63,63"
           style="stroke-width:0.9689in"
           transform="scale(0.00282222,-0.00282222)"
           id="path17655" />
        <path
           d="m 189,252 h 378 v 63 l -31,63 -32,32 -63,31 H 346 L 284,410 220,346 189,252 V 189 L 220,94.5 284,31.5 346,0 h 95 l 63,31.5 63,63"
           style="stroke-width:0.9689in"
           transform="matrix(0.00282222,0,0,-0.00282222,1.778,0)"
           id="path17657" />
        <path
           d="M 252,662 V 126 L 284,31.5 346,0 h 64 M 158,441 h 220"
           style="stroke-width:0.9689in"
           transform="matrix(0.00282222,0,0,-0.00282222,3.3782,0)"
           id="path17659" />
        <path
           d="M 220,662 V 0 M 662,662 V 0 M 220,346 h 442"
           style="stroke-width:0.9689in"
           transform="matrix(0.00282222,0,0,-0.00282222,5.5118,0)"
           id="path17661" />
        <path
           d="M 346,441 284,410 220,346 189,252 V 189 L 220,94.5 284,31.5 346,0 h 95 l 63,31.5 63,63 31,94.5 v 63 l -31,94 -63,64 -63,31 h -95"
           style="stroke-width:0.9689in"
           transform="matrix(0.00282222,0,0,-0.00282222,7.46759,0)"
           id="path17663" />
        <path
           d="M 220,441 V 126 L 252,31.5 315,0 h 95 l 62,31.5 95,94.5 m 0,315 V 0"
           style="stroke-width:0.9689in"
           transform="matrix(0.00282222,0,0,-0.00282222,9.15528,0)"
           id="path17665" />
        <path
           d="M 220,441 V 0 m 0,252 32,94 63,64 63,31 h 94"
           style="stroke-width:0.9689in"
           transform="matrix(0.00282222,0,0,-0.00282222,10.843,0)"
           id="path17667" />
      </g>
      <g
         transform="translate(20,32.0555)"
         id="g17683">
        <path
           d="m 630,567 -63,63 -95,32 H 346 l -94,-32 -63,-63 v -63 l 31,-63 32,-31 63,-32 189,-63 63,-31 31,-32 32,-63 V 94.5 L 567,31.5 472,0 H 346 l -94,31.5 -63,63"
           style="stroke-width:0.9689in"
           transform="scale(0.00282222,-0.00282222)"
           id="path17671" />
        <path
           d="m 189,252 h 378 v 63 l -31,63 -32,32 -63,31 H 346 L 284,410 220,346 189,252 V 189 L 220,94.5 284,31.5 346,0 h 95 l 63,31.5 63,63"
           style="stroke-width:0.9689in"
           transform="matrix(0.00282222,0,0,-0.00282222,1.778,0)"
           id="path17673" />
        <path
           d="M 252,662 V 126 L 284,31.5 346,0 h 64 M 158,441 h 220"
           style="stroke-width:0.9689in"
           transform="matrix(0.00282222,0,0,-0.00282222,3.3782,0)"
           id="path17675" />
        <path
           d="M 220,662 V 0 M 220,662 472,0 M 724,662 472,0 M 724,662 V 0"
           style="stroke-width:0.9689in"
           transform="matrix(0.00282222,0,0,-0.00282222,5.5118,0)"
           id="path17677" />
        <path
           d="m 189,662 31,-32 32,32 -32,31 -31,-31 M 220,441 V 0"
           style="stroke-width:0.9689in"
           transform="matrix(0.00282222,0,0,-0.00282222,7.64539,0)"
           id="path17679" />
        <path
           d="M 220,441 V 0 m 0,315 95,95 63,31 h 94 l 64,-31 31,-95 V 0"
           style="stroke-width:0.9689in"
           transform="matrix(0.00282222,0,0,-0.00282222,8.35659,0)"
           id="path17681" />
      </g>
      <g
         transform="translate(20,35.5833)"
         id="g17701">
        <path
           d="m 662,504 -32,63 -63,63 -63,32 H 378 L 315,630 252,567 220,504 189,410 V 252 l 31,-94 32,-63.5 63,-63 L 378,0 h 126 l 63,31.5 63,63 32,63.5"
           style="stroke-width:0.9689in"
           transform="scale(0.00282222,-0.00282222)"
           id="path17685" />
        <path
           d="M 220,662 V 0"
           style="stroke-width:0.9689in"
           transform="matrix(0.00282222,0,0,-0.00282222,1.86831,0)"
           id="path17687" />
        <path
           d="m 189,252 h 378 v 63 l -31,63 -32,32 -63,31 H 346 L 284,410 220,346 189,252 V 189 L 220,94.5 284,31.5 346,0 h 95 l 63,31.5 63,63"
           style="stroke-width:0.9689in"
           transform="matrix(0.00282222,0,0,-0.00282222,2.57951,0)"
           id="path17689" />
        <path
           d="M 567,441 V 0 m 0,346 -63,64 -63,31 H 346 L 284,410 220,346 189,252 V 189 L 220,94.5 284,31.5 346,0 h 95 l 63,31.5 63,63"
           style="stroke-width:0.9689in"
           transform="matrix(0.00282222,0,0,-0.00282222,4.17971,0)"
           id="path17691" />
        <path
           d="M 220,441 V 0 m 0,252 32,94 63,64 63,31 h 94"
           style="stroke-width:0.9689in"
           transform="matrix(0.00282222,0,0,-0.00282222,5.8674,0)"
           id="path17693" />
        <path
           d="m 630,567 -63,63 -95,32 H 346 l -94,-32 -63,-63 v -63 l 31,-63 32,-31 63,-32 189,-63 63,-31 31,-32 32,-63 V 94.5 L 567,31.5 472,0 H 346 l -94,31.5 -63,63"
           style="stroke-width:0.9689in"
           transform="matrix(0.00282222,0,0,-0.00282222,8.0913,0)"
           id="path17695" />
        <path
           d="m 189,252 h 378 v 63 l -31,63 -32,32 -63,31 H 346 L 284,410 220,346 189,252 V 189 L 220,94.5 284,31.5 346,0 h 95 l 63,31.5 63,63"
           style="stroke-width:0.9689in"
           transform="matrix(0.00282222,0,0,-0.00282222,9.8693,0)"
           id="path17697" />
        <path
           d="m 567,346 -63,64 -63,31 H 346 L 284,410 220,346 189,252 V 189 L 220,94.5 284,31.5 346,0 h 95 l 63,31.5 63,63"
           style="stroke-width:0.9689in"
           transform="matrix(0.00282222,0,0,-0.00282222,11.4695,0)"
           id="path17699" />
      </g>
      <g
         transform="translate(20,39.1111)"
         id="g17719">
        <path
           d="M 220,662 V 0 m 0,0 h 378"
           style="stroke-width:0.9689in"
           transform="scale(0.00282222,-0.00282222)"
           id="path17703" />
        <path
           d="M 346,441 284,410 220,346 189,252 V 189 L 220,94.5 284,31.5 346,0 h 95 l 63,31.5 63,63 31,94.5 v 63 l -31,94 -63,64 -63,31 h -95"
           style="stroke-width:0.9689in"
           transform="matrix(0.00282222,0,0,-0.00282222,1.51271,0)"
           id="path17705" />
        <path
           d="M 220,441 V 0 m 0,315 95,95 63,31 h 94 l 64,-31 31,-95 V 0"
           style="stroke-width:0.9689in"
           transform="matrix(0.00282222,0,0,-0.00282222,3.2004,0)"
           id="path17707" />
        <path
           d="M 567,441 V -63 l -31,-95 -32,-31 -63,-31 h -95 l -62,31 m 283,535 -63,64 -63,31 H 346 L 284,410 220,346 189,252 V 189 L 220,94.5 284,31.5 346,0 h 95 l 63,31.5 63,63"
           style="stroke-width:0.9689in"
           transform="matrix(0.00282222,0,0,-0.00282222,4.88809,0)"
           id="path17709" />
        <path
           d="M 220,662 V 0 M 220,662 472,0 M 724,662 472,0 M 724,662 V 0"
           style="stroke-width:0.9689in"
           transform="matrix(0.00282222,0,0,-0.00282222,7.64257,0)"
           id="path17711" />
        <path
           d="M 378,662 315,630 252,567 220,504 189,410 V 252 l 31,-94 32,-63.5 63,-63 L 378,0 h 126 l 63,31.5 63,63 32,63.5 31,94 v 158 l -31,94 -32,63 -63,63 -63,32 H 378"
           style="stroke-width:0.9689in"
           transform="matrix(0.00282222,0,0,-0.00282222,9.77617,0)"
           id="path17713" />
        <path
           d="M 220,662 V 0 m 0,662 h 221 l 95,-32 62,-63 32,-63 32,-94 V 252 L 630,158 598,94.5 536,31.5 441,0 H 220"
           style="stroke-width:0.9689in"
           transform="matrix(0.00282222,0,0,-0.00282222,11.732,0)"
           id="path17715" />
        <path
           d="M 220,662 V 0 m 0,662 H 630 M 220,346 H 472 M 220,0 h 410"
           style="stroke-width:0.9689in"
           transform="matrix(0.00282222,0,0,-0.00282222,13.6003,0)"
           id="path17717" />
      </g>
      <g
         transform="translate(20,42.6389)"
         id="g17729">
        <path
           d="M 220,662 V 0 M 220,662 472,0 M 724,662 472,0 M 724,662 V 0"
           style="stroke-width:0.9689in"
           transform="scale(0.00282222,-0.00282222)"
           id="path17721" />
        <path
           d="M 378,662 315,630 252,567 220,504 189,410 V 252 l 31,-94 32,-63.5 63,-63 L 378,0 h 126 l 63,31.5 63,63 32,63.5 31,94 v 158 l -31,94 -32,63 -63,63 -63,32 H 378"
           style="stroke-width:0.9689in"
           transform="matrix(0.00282222,0,0,-0.00282222,2.1336,0)"
           id="path17723" />
        <path
           d="M 220,662 V 0 m 0,662 h 221 l 95,-32 62,-63 32,-63 32,-94 V 252 L 630,158 598,94.5 536,31.5 441,0 H 220"
           style="stroke-width:0.9689in"
           transform="matrix(0.00282222,0,0,-0.00282222,4.0894,0)"
           id="path17725" />
        <path
           d="M 220,662 V 0 m 0,662 H 630 M 220,346 H 472 M 220,0 h 410"
           style="stroke-width:0.9689in"
           transform="matrix(0.00282222,0,0,-0.00282222,5.95771,0)"
           id="path17727" />
      </g>
      <g
         transform="translate(20,46.1666)"
         id="g17745">
        <path
           d="M 220,662 V 189 L 252,94.5 315,31.5 410,0 h 62 l 95,31.5 63,63 32,94.5 v 473"
           style="stroke-width:0.9689in"
           transform="scale(0.00282222,-0.00282222)"
           id="path17731" />
        <path
           d="M 220,662 V 0 m 0,662 h 284 l 94,-32 32,-32 32,-62 V 441 L 630,378 598,346 504,315 H 220"
           style="stroke-width:0.9689in"
           transform="matrix(0.00282222,0,0,-0.00282222,1.9558,0)"
           id="path17733" />
        <path
           d="M 724,788 158,-220"
           style="stroke-width:0.9689in"
           transform="matrix(0.00282222,0,0,-0.00282222,3.82411,0)"
           id="path17735" />
        <path
           d="M 220,662 V 0 m 0,662 h 221 l 95,-32 62,-63 32,-63 32,-94 V 252 L 630,158 598,94.5 536,31.5 441,0 H 220"
           style="stroke-width:0.9689in"
           transform="matrix(0.00282222,0,0,-0.00282222,5.77991,0)"
           id="path17737" />
        <path
           d="M 378,662 315,630 252,567 220,504 189,410 V 252 l 31,-94 32,-63.5 63,-63 L 378,0 h 126 l 63,31.5 63,63 32,63.5 31,94 v 158 l -31,94 -32,63 -63,63 -63,32 H 378"
           style="stroke-width:0.9689in"
           transform="matrix(0.00282222,0,0,-0.00282222,7.64822,0)"
           id="path17739" />
        <path
           d="M 158,662 315,0 M 472,662 315,0 M 472,662 630,0 M 788,662 630,0"
           style="stroke-width:0.9689in"
           transform="matrix(0.00282222,0,0,-0.00282222,9.60401,0)"
           id="path17741" />
        <path
           d="M 220,662 V 0 M 220,662 662,0 m 0,662 V 0"
           style="stroke-width:0.9689in"
           transform="matrix(0.00282222,0,0,-0.00282222,11.7376,0)"
           id="path17743" />
      </g>
      <g
         transform="translate(20,49.6944)"
         id="g17773">
        <path
           d="M 378,662 126,0 M 378,662 630,0 M 220,220 h 316"
           style="stroke-width:0.9689in"
           transform="scale(0.00282222,-0.00282222)"
           id="path17747" />
        <path
           d="M 567,662 V 0 m 0,346 -63,64 -63,31 H 346 L 284,410 220,346 189,252 V 189 L 220,94.5 284,31.5 346,0 h 95 l 63,31.5 63,63"
           style="stroke-width:0.9689in"
           transform="matrix(0.00282222,0,0,-0.00282222,1.6002,0)"
           id="path17749" />
        <path
           d="m 252,662 32,-32 31,32 -31,31 -32,-31 M 284,441 V -94.5 l -32,-94.5 -63,-31 h -63"
           style="stroke-width:0.9689in"
           transform="matrix(0.00282222,0,0,-0.00282222,3.28789,0)"
           id="path17751" />
        <path
           d="M 220,441 V 126 L 252,31.5 315,0 h 95 l 62,31.5 95,94.5 m 0,315 V 0"
           style="stroke-width:0.9689in"
           transform="matrix(0.00282222,0,0,-0.00282222,4.17689,0)"
           id="path17753" />
        <path
           d="m 536,346 -32,64 -94,31 h -95 l -95,-31 -31,-64 31,-62 64,-32 157,-32 63,-31 32,-63 V 94.5 L 504,31.5 410,0 h -95 l -95,31.5 -31,63"
           style="stroke-width:0.9689in"
           transform="matrix(0.00282222,0,0,-0.00282222,5.86457,0)"
           id="path17755" />
        <path
           d="M 252,662 V 126 L 284,31.5 346,0 h 64 M 158,441 h 220"
           style="stroke-width:0.9689in"
           transform="matrix(0.00282222,0,0,-0.00282222,7.37728,0)"
           id="path17757" />
        <path
           d="m 536,346 -32,64 -94,31 h -95 l -95,-31 -31,-64 31,-62 64,-32 157,-32 63,-31 32,-63 V 94.5 L 504,31.5 410,0 h -95 l -95,31.5 -31,63"
           style="stroke-width:0.9689in"
           transform="matrix(0.00282222,0,0,-0.00282222,9.51088,0)"
           id="path17759" />
        <path
           d="m 189,252 h 378 v 63 l -31,63 -32,32 -63,31 H 346 L 284,410 220,346 189,252 V 189 L 220,94.5 284,31.5 346,0 h 95 l 63,31.5 63,63"
           style="stroke-width:0.9689in"
           transform="matrix(0.00282222,0,0,-0.00282222,11.0236,0)"
           id="path17761" />
        <path
           d="m 567,346 -63,64 -63,31 H 346 L 284,410 220,346 189,252 V 189 L 220,94.5 284,31.5 346,0 h 95 l 63,31.5 63,63"
           style="stroke-width:0.9689in"
           transform="matrix(0.00282222,0,0,-0.00282222,12.6238,0)"
           id="path17763" />
        <path
           d="M 346,441 284,410 220,346 189,252 V 189 L 220,94.5 284,31.5 346,0 h 95 l 63,31.5 63,63 31,94.5 v 63 l -31,94 -63,64 -63,31 h -95"
           style="stroke-width:0.9689in"
           transform="matrix(0.00282222,0,0,-0.00282222,14.224,0)"
           id="path17765" />
        <path
           d="M 220,441 V 0 m 0,315 95,95 63,31 h 94 l 64,-31 31,-95 V 0"
           style="stroke-width:0.9689in"
           transform="matrix(0.00282222,0,0,-0.00282222,15.9117,0)"
           id="path17767" />
        <path
           d="M 567,662 V 0 m 0,346 -63,64 -63,31 H 346 L 284,410 220,346 189,252 V 189 L 220,94.5 284,31.5 346,0 h 95 l 63,31.5 63,63"
           style="stroke-width:0.9689in"
           transform="matrix(0.00282222,0,0,-0.00282222,17.5994,0)"
           id="path17769" />
        <path
           d="m 536,346 -32,64 -94,31 h -95 l -95,-31 -31,-64 31,-62 64,-32 157,-32 63,-31 32,-63 V 94.5 L 504,31.5 410,0 h -95 l -95,31.5 -31,63"
           style="stroke-width:0.9689in"
           transform="matrix(0.00282222,0,0,-0.00282222,19.2871,0)"
           id="path17771" />
      </g>
      <g
         transform="translate(20,53.2222)"
         id="g17799">
        <path
           d="m 662,504 -32,63 -63,63 -63,32 H 378 L 315,630 252,567 220,504 189,410 V 252 l 31,-94 32,-63.5 63,-63 L 378,0 h 126 l 63,31.5 63,63 32,63.5"
           style="stroke-width:0.9689in"
           transform="scale(0.00282222,-0.00282222)"
           id="path17775" />
        <path
           d="M 220,441 V 126 L 252,31.5 315,0 h 95 l 62,31.5 95,94.5 m 0,315 V 0"
           style="stroke-width:0.9689in"
           transform="matrix(0.00282222,0,0,-0.00282222,1.86831,0)"
           id="path17777" />
        <path
           d="M 220,441 V 0 m 0,252 32,94 63,64 63,31 h 94"
           style="stroke-width:0.9689in"
           transform="matrix(0.00282222,0,0,-0.00282222,3.556,0)"
           id="path17779" />
        <path
           d="M 220,441 V 0 m 0,252 32,94 63,64 63,31 h 94"
           style="stroke-width:0.9689in"
           transform="matrix(0.00282222,0,0,-0.00282222,4.71311,0)"
           id="path17781" />
        <path
           d="m 189,252 h 378 v 63 l -31,63 -32,32 -63,31 H 346 L 284,410 220,346 189,252 V 189 L 220,94.5 284,31.5 346,0 h 95 l 63,31.5 63,63"
           style="stroke-width:0.9689in"
           transform="matrix(0.00282222,0,0,-0.00282222,5.87022,0)"
           id="path17783" />
        <path
           d="M 220,441 V 0 m 0,315 95,95 63,31 h 94 l 64,-31 31,-95 V 0"
           style="stroke-width:0.9689in"
           transform="matrix(0.00282222,0,0,-0.00282222,7.47042,0)"
           id="path17785" />
        <path
           d="M 252,662 V 126 L 284,31.5 346,0 h 64 M 158,441 h 220"
           style="stroke-width:0.9689in"
           transform="matrix(0.00282222,0,0,-0.00282222,9.1581,0)"
           id="path17787" />
        <path
           d="m 189,252 h 378 v 63 l -31,63 -32,32 -63,31 H 346 L 284,410 220,346 189,252 V 189 L 220,94.5 284,31.5 346,0 h 95 l 63,31.5 63,63"
           style="stroke-width:0.9689in"
           transform="matrix(0.00282222,0,0,-0.00282222,11.2917,0)"
           id="path17789" />
        <path
           d="M 220,441 V 0 m 0,252 32,94 63,64 63,31 h 94"
           style="stroke-width:0.9689in"
           transform="matrix(0.00282222,0,0,-0.00282222,12.8919,0)"
           id="path17791" />
        <path
           d="M 220,441 V 0 m 0,252 32,94 63,64 63,31 h 94"
           style="stroke-width:0.9689in"
           transform="matrix(0.00282222,0,0,-0.00282222,14.049,0)"
           id="path17793" />
        <path
           d="M 346,441 284,410 220,346 189,252 V 189 L 220,94.5 284,31.5 346,0 h 95 l 63,31.5 63,63 31,94.5 v 63 l -31,94 -63,64 -63,31 h -95"
           style="stroke-width:0.9689in"
           transform="matrix(0.00282222,0,0,-0.00282222,15.2061,0)"
           id="path17795" />
        <path
           d="M 220,441 V 0 m 0,252 32,94 63,64 63,31 h 94"
           style="stroke-width:0.9689in"
           transform="matrix(0.00282222,0,0,-0.00282222,16.8938,0)"
           id="path17797" />
      </g>
      <g
         transform="translate(20,56.75)"
         id="g17821">
        <path
           d="M 220,662 V 0 m 0,662 h 221 l 95,-32 62,-63 32,-63 32,-94 V 252 L 630,158 598,94.5 536,31.5 441,0 H 220"
           style="stroke-width:0.9689in"
           transform="scale(0.00282222,-0.00282222)"
           id="path17801" />
        <path
           d="m 189,252 h 378 v 63 l -31,63 -32,32 -63,31 H 346 L 284,410 220,346 189,252 V 189 L 220,94.5 284,31.5 346,0 h 95 l 63,31.5 63,63"
           style="stroke-width:0.9689in"
           transform="matrix(0.00282222,0,0,-0.00282222,1.86831,0)"
           id="path17803" />
        <path
           d="M 220,662 V 0"
           style="stroke-width:0.9689in"
           transform="matrix(0.00282222,0,0,-0.00282222,3.46851,0)"
           id="path17805" />
        <path
           d="M 252,662 V 126 L 284,31.5 346,0 h 64 M 158,441 h 220"
           style="stroke-width:0.9689in"
           transform="matrix(0.00282222,0,0,-0.00282222,4.17971,0)"
           id="path17807" />
        <path
           d="M 567,441 V 0 m 0,346 -63,64 -63,31 H 346 L 284,410 220,346 189,252 V 189 L 220,94.5 284,31.5 346,0 h 95 l 63,31.5 63,63"
           style="stroke-width:0.9689in"
           transform="matrix(0.00282222,0,0,-0.00282222,5.24651,0)"
           id="path17809" />
        <path
           d="m 189,252 h 378 v 63 l -31,63 -32,32 -63,31 H 346 L 284,410 220,346 189,252 V 189 L 220,94.5 284,31.5 346,0 h 95 l 63,31.5 63,63"
           style="stroke-width:0.9689in"
           transform="matrix(0.00282222,0,0,-0.00282222,8.00099,0)"
           id="path17811" />
        <path
           d="M 220,441 V 0 m 0,252 32,94 63,64 63,31 h 94"
           style="stroke-width:0.9689in"
           transform="matrix(0.00282222,0,0,-0.00282222,9.60119,0)"
           id="path17813" />
        <path
           d="M 220,441 V 0 m 0,252 32,94 63,64 63,31 h 94"
           style="stroke-width:0.9689in"
           transform="matrix(0.00282222,0,0,-0.00282222,10.7583,0)"
           id="path17815" />
        <path
           d="M 346,441 284,410 220,346 189,252 V 189 L 220,94.5 284,31.5 346,0 h 95 l 63,31.5 63,63 31,94.5 v 63 l -31,94 -63,64 -63,31 h -95"
           style="stroke-width:0.9689in"
           transform="matrix(0.00282222,0,0,-0.00282222,11.9154,0)"
           id="path17817" />
        <path
           d="M 220,441 V 0 m 0,252 32,94 63,64 63,31 h 94"
           style="stroke-width:0.9689in"
           transform="matrix(0.00282222,0,0,-0.00282222,13.6031,0)"
           id="path17819" />
      </g>
      <g
         transform="translate(20,60.2778)"
         id="g17845">
        <path
           d="M 346,662 V 0 M 126,662 h 441"
           style="stroke-width:0.9689in"
           transform="scale(0.00282222,-0.00282222)"
           id="path17823" />
        <path
           d="m 189,252 h 378 v 63 l -31,63 -32,32 -63,31 H 346 L 284,410 220,346 189,252 V 189 L 220,94.5 284,31.5 346,0 h 95 l 63,31.5 63,63"
           style="stroke-width:0.9689in"
           transform="matrix(0.00282222,0,0,-0.00282222,1.4224,0)"
           id="path17825" />
        <path
           d="M 220,441 V 0 m 0,315 95,95 63,31 h 94 l 64,-31 31,-95 V 0 m 0,315 95,95 62,31 h 95 l 63,-31 32,-95 V 0"
           style="stroke-width:0.9689in"
           transform="matrix(0.00282222,0,0,-0.00282222,3.0226,0)"
           id="path17827" />
        <path
           d="m 220,441 v -661 m 0,566 64,64 62,31 h 95 l 63,-31 63,-64 31,-94 V 189 L 567,94.5 504,31.5 441,0 h -95 l -62,31.5 -64,63"
           style="stroke-width:0.9689in"
           transform="matrix(0.00282222,0,0,-0.00282222,5.6896,0)"
           id="path17829" />
        <path
           d="m 189,252 h 378 v 63 l -31,63 -32,32 -63,31 H 346 L 284,410 220,346 189,252 V 189 L 220,94.5 284,31.5 346,0 h 95 l 63,31.5 63,63"
           style="stroke-width:0.9689in"
           transform="matrix(0.00282222,0,0,-0.00282222,7.37728,0)"
           id="path17831" />
        <path
           d="M 220,441 V 0 m 0,252 32,94 63,64 63,31 h 94"
           style="stroke-width:0.9689in"
           transform="matrix(0.00282222,0,0,-0.00282222,8.97748,0)"
           id="path17833" />
        <path
           d="M 567,441 V 0 m 0,346 -63,64 -63,31 H 346 L 284,410 220,346 189,252 V 189 L 220,94.5 284,31.5 346,0 h 95 l 63,31.5 63,63"
           style="stroke-width:0.9689in"
           transform="matrix(0.00282222,0,0,-0.00282222,10.1346,0)"
           id="path17835" />
        <path
           d="M 252,662 V 126 L 284,31.5 346,0 h 64 M 158,441 h 220"
           style="stroke-width:0.9689in"
           transform="matrix(0.00282222,0,0,-0.00282222,11.8223,0)"
           id="path17837" />
        <path
           d="M 220,441 V 126 L 252,31.5 315,0 h 95 l 62,31.5 95,94.5 m 0,315 V 0"
           style="stroke-width:0.9689in"
           transform="matrix(0.00282222,0,0,-0.00282222,12.8891,0)"
           id="path17839" />
        <path
           d="M 220,441 V 0 m 0,252 32,94 63,64 63,31 h 94"
           style="stroke-width:0.9689in"
           transform="matrix(0.00282222,0,0,-0.00282222,14.5768,0)"
           id="path17841" />
        <path
           d="m 189,252 h 378 v 63 l -31,63 -32,32 -63,31 H 346 L 284,410 220,346 189,252 V 189 L 220,94.5 284,31.5 346,0 h 95 l 63,31.5 63,63"
           style="stroke-width:0.9689in"
           transform="matrix(0.00282222,0,0,-0.00282222,15.7339,0)"
           id="path17843" />
      </g>
      <g
         transform="translate(20,63.8055)"
         id="g17859">
        <path
           d="M 220,662 V 189 L 252,94.5 315,31.5 410,0 h 62 l 95,31.5 63,63 32,94.5 v 473"
           style="stroke-width:0.9689in"
           transform="scale(0.00282222,-0.00282222)"
           id="path17847" />
        <path
           d="m 220,441 v -661 m 0,566 64,64 62,31 h 95 l 63,-31 63,-64 31,-94 V 189 L 567,94.5 504,31.5 441,0 h -95 l -62,31.5 -64,63"
           style="stroke-width:0.9689in"
           transform="matrix(0.00282222,0,0,-0.00282222,1.9558,0)"
           id="path17849" />
        <path
           d="M 252,662 V 126 L 284,31.5 346,0 h 64 M 158,441 h 220"
           style="stroke-width:0.9689in"
           transform="matrix(0.00282222,0,0,-0.00282222,3.64349,0)"
           id="path17851" />
        <path
           d="m 189,662 31,-32 32,32 -32,31 -31,-31 M 220,441 V 0"
           style="stroke-width:0.9689in"
           transform="matrix(0.00282222,0,0,-0.00282222,4.71029,0)"
           id="path17853" />
        <path
           d="M 220,441 V 0 m 0,315 95,95 63,31 h 94 l 64,-31 31,-95 V 0 m 0,315 95,95 62,31 h 95 l 63,-31 32,-95 V 0"
           style="stroke-width:0.9689in"
           transform="matrix(0.00282222,0,0,-0.00282222,5.42148,0)"
           id="path17855" />
        <path
           d="m 189,252 h 378 v 63 l -31,63 -32,32 -63,31 H 346 L 284,410 220,346 189,252 V 189 L 220,94.5 284,31.5 346,0 h 95 l 63,31.5 63,63"
           style="stroke-width:0.9689in"
           transform="matrix(0.00282222,0,0,-0.00282222,8.08848,0)"
           id="path17857" />
      </g>
      <g
         transform="translate(20,67.3333)"
         id="g17875">
        <path
           d="M 220,662 V 0 m 0,662 h 284 l 94,-32 32,-32 32,-62 v -64 l -32,-62 -32,-32 -94,-32 m -284,0 h 284 l 94,-31 32,-31 32,-64 V 126 L 630,63 598,31.5 504,0 H 220"
           style="stroke-width:0.9689in"
           transform="scale(0.00282222,-0.00282222)"
           id="path17861" />
        <path
           d="M 567,441 V 0 m 0,346 -63,64 -63,31 H 346 L 284,410 220,346 189,252 V 189 L 220,94.5 284,31.5 346,0 h 95 l 63,31.5 63,63"
           style="stroke-width:0.9689in"
           transform="matrix(0.00282222,0,0,-0.00282222,1.86831,0)"
           id="path17863" />
        <path
           d="M 252,662 V 126 L 284,31.5 346,0 h 64 M 158,441 h 220"
           style="stroke-width:0.9689in"
           transform="matrix(0.00282222,0,0,-0.00282222,3.556,0)"
           id="path17865" />
        <path
           d="M 252,662 V 126 L 284,31.5 346,0 h 64 M 158,441 h 220"
           style="stroke-width:0.9689in"
           transform="matrix(0.00282222,0,0,-0.00282222,4.6228,0)"
           id="path17867" />
        <path
           d="m 189,252 h 378 v 63 l -31,63 -32,32 -63,31 H 346 L 284,410 220,346 189,252 V 189 L 220,94.5 284,31.5 346,0 h 95 l 63,31.5 63,63"
           style="stroke-width:0.9689in"
           transform="matrix(0.00282222,0,0,-0.00282222,5.6896,0)"
           id="path17869" />
        <path
           d="M 220,441 V 0 m 0,252 32,94 63,64 63,31 h 94"
           style="stroke-width:0.9689in"
           transform="matrix(0.00282222,0,0,-0.00282222,7.28979,0)"
           id="path17871" />
        <path
           d="M 158,441 346,0 M 536,441 346,0 l -62,-126 -64,-63 -62,-31 h -32"
           style="stroke-width:0.9689in"
           transform="matrix(0.00282222,0,0,-0.00282222,8.4469,0)"
           id="path17873" />
      </g>
      <g
         transform="translate(20,70.8611)"
         id="g17891">
        <path
           d="M 220,662 V 0 m 0,0 h 378"
           style="stroke-width:0.9689in"
           transform="scale(0.00282222,-0.00282222)"
           id="path17877" />
        <path
           d="M 346,441 284,410 220,346 189,252 V 189 L 220,94.5 284,31.5 346,0 h 95 l 63,31.5 63,63 31,94.5 v 63 l -31,94 -63,64 -63,31 h -95"
           style="stroke-width:0.9689in"
           transform="matrix(0.00282222,0,0,-0.00282222,1.51271,0)"
           id="path17879" />
        <path
           d="M 220,441 V 0 m 0,315 95,95 63,31 h 94 l 64,-31 31,-95 V 0"
           style="stroke-width:0.9689in"
           transform="matrix(0.00282222,0,0,-0.00282222,3.2004,0)"
           id="path17881" />
        <path
           d="M 567,441 V -63 l -31,-95 -32,-31 -63,-31 h -95 l -62,31 m 283,535 -63,64 -63,31 H 346 L 284,410 220,346 189,252 V 189 L 220,94.5 284,31.5 346,0 h 95 l 63,31.5 63,63"
           style="stroke-width:0.9689in"
           transform="matrix(0.00282222,0,0,-0.00282222,4.88809,0)"
           id="path17883" />
        <path
           d="M 220,662 V 189 L 252,94.5 315,31.5 410,0 h 62 l 95,31.5 63,63 32,94.5 v 473"
           style="stroke-width:0.9689in"
           transform="matrix(0.00282222,0,0,-0.00282222,7.64257,0)"
           id="path17885" />
        <path
           d="M 220,662 V 0 m 0,662 h 284 l 94,-32 32,-32 32,-62 V 441 L 630,378 598,346 504,315 H 220"
           style="stroke-width:0.9689in"
           transform="matrix(0.00282222,0,0,-0.00282222,9.59837,0)"
           id="path17887" />
        <path
           d="m 220,378 -31,-32 31,-31 32,31 -32,32 m 0,-220 -31,-32 31,-31.5 32,31.5 -32,32"
           style="stroke-width:0.9689in"
           transform="matrix(0.00282222,0,0,-0.00282222,11.4667,0)"
           id="path17889" />
      </g>
      <g
         transform="translate(20,74.3889)"
         id="g17907">
        <path
           d="m 630,567 -63,63 -95,32 H 346 l -94,-32 -63,-63 v -63 l 31,-63 32,-31 63,-32 189,-63 63,-31 31,-32 32,-63 V 94.5 L 567,31.5 472,0 H 346 l -94,31.5 -63,63"
           style="stroke-width:0.9689in"
           transform="scale(0.00282222,-0.00282222)"
           id="path17893" />
        <path
           d="M 567,441 V 0 m 0,346 -63,64 -63,31 H 346 L 284,410 220,346 189,252 V 189 L 220,94.5 284,31.5 346,0 h 95 l 63,31.5 63,63"
           style="stroke-width:0.9689in"
           transform="matrix(0.00282222,0,0,-0.00282222,1.778,0)"
           id="path17895" />
        <path
           d="M 158,441 346,0 M 536,441 346,0"
           style="stroke-width:0.9689in"
           transform="matrix(0.00282222,0,0,-0.00282222,3.46569,0)"
           id="path17897" />
        <path
           d="m 189,252 h 378 v 63 l -31,63 -32,32 -63,31 H 346 L 284,410 220,346 189,252 V 189 L 220,94.5 284,31.5 346,0 h 95 l 63,31.5 63,63"
           style="stroke-width:0.9689in"
           transform="matrix(0.00282222,0,0,-0.00282222,4.88809,0)"
           id="path17899" />
        <path
           d="M 567,441 V 0 m 0,346 -63,64 -63,31 H 346 L 284,410 220,346 189,252 V 189 L 220,94.5 284,31.5 346,0 h 95 l 63,31.5 63,63"
           style="stroke-width:0.9689in"
           transform="matrix(0.00282222,0,0,-0.00282222,7.55508,0)"
           id="path17901" />
        <path
           d="M 220,441 V 0 m 0,315 95,95 63,31 h 94 l 64,-31 31,-95 V 0"
           style="stroke-width:0.9689in"
           transform="matrix(0.00282222,0,0,-0.00282222,9.24277,0)"
           id="path17903" />
        <path
           d="M 567,662 V 0 m 0,346 -63,64 -63,31 H 346 L 284,410 220,346 189,252 V 189 L 220,94.5 284,31.5 346,0 h 95 l 63,31.5 63,63"
           style="stroke-width:0.9689in"
           transform="matrix(0.00282222,0,0,-0.00282222,10.9305,0)"
           id="path17905" />
      </g>
      <g
         transform="translate(20,77.9166)"
         id="g17931">
        <path
           d="M 220,441 V 126 L 252,31.5 315,0 h 95 l 62,31.5 95,94.5 m 0,315 V 0"
           style="stroke-width:0.9689in"
           transform="scale(0.00282222,-0.00282222)"
           id="path17909" />
        <path
           d="m 220,441 v -661 m 0,566 64,64 62,31 h 95 l 63,-31 63,-64 31,-94 V 189 L 567,94.5 504,31.5 441,0 h -95 l -62,31.5 -64,63"
           style="stroke-width:0.9689in"
           transform="matrix(0.00282222,0,0,-0.00282222,1.68769,0)"
           id="path17911" />
        <path
           d="M 567,662 V 0 m 0,346 -63,64 -63,31 H 346 L 284,410 220,346 189,252 V 189 L 220,94.5 284,31.5 346,0 h 95 l 63,31.5 63,63"
           style="stroke-width:0.9689in"
           transform="matrix(0.00282222,0,0,-0.00282222,3.37538,0)"
           id="path17913" />
        <path
           d="M 567,441 V 0 m 0,346 -63,64 -63,31 H 346 L 284,410 220,346 189,252 V 189 L 220,94.5 284,31.5 346,0 h 95 l 63,31.5 63,63"
           style="stroke-width:0.9689in"
           transform="matrix(0.00282222,0,0,-0.00282222,5.06306,0)"
           id="path17915" />
        <path
           d="M 252,662 V 126 L 284,31.5 346,0 h 64 M 158,441 h 220"
           style="stroke-width:0.9689in"
           transform="matrix(0.00282222,0,0,-0.00282222,6.75075,0)"
           id="path17917" />
        <path
           d="m 189,252 h 378 v 63 l -31,63 -32,32 -63,31 H 346 L 284,410 220,346 189,252 V 189 L 220,94.5 284,31.5 346,0 h 95 l 63,31.5 63,63"
           style="stroke-width:0.9689in"
           transform="matrix(0.00282222,0,0,-0.00282222,7.81755,0)"
           id="path17919" />
        <path
           d="m 189,252 h 378 v 63 l -31,63 -32,32 -63,31 H 346 L 284,410 220,346 189,252 V 189 L 220,94.5 284,31.5 346,0 h 95 l 63,31.5 63,63"
           style="stroke-width:0.9689in"
           transform="matrix(0.00282222,0,0,-0.00282222,10.4845,0)"
           id="path17921" />
        <path
           d="M 220,441 V 0 m 0,252 32,94 63,64 63,31 h 94"
           style="stroke-width:0.9689in"
           transform="matrix(0.00282222,0,0,-0.00282222,12.0847,0)"
           id="path17923" />
        <path
           d="M 220,441 V 0 m 0,252 32,94 63,64 63,31 h 94"
           style="stroke-width:0.9689in"
           transform="matrix(0.00282222,0,0,-0.00282222,13.2419,0)"
           id="path17925" />
        <path
           d="M 346,441 284,410 220,346 189,252 V 189 L 220,94.5 284,31.5 346,0 h 95 l 63,31.5 63,63 31,94.5 v 63 l -31,94 -63,64 -63,31 h -95"
           style="stroke-width:0.9689in"
           transform="matrix(0.00282222,0,0,-0.00282222,14.399,0)"
           id="path17927" />
        <path
           d="M 220,441 V 0 m 0,252 32,94 63,64 63,31 h 94"
           style="stroke-width:0.9689in"
           transform="matrix(0.00282222,0,0,-0.00282222,16.0867,0)"
           id="path17929" />
      </g>
      <g
         transform="translate(20,81.4444)"
         id="g17951">
        <path
           d="M 220,662 V 0 m 0,0 h 378"
           style="stroke-width:0.9689in"
           transform="scale(0.00282222,-0.00282222)"
           id="path17933" />
        <path
           d="M 346,441 284,410 220,346 189,252 V 189 L 220,94.5 284,31.5 346,0 h 95 l 63,31.5 63,63 31,94.5 v 63 l -31,94 -63,64 -63,31 h -95"
           style="stroke-width:0.9689in"
           transform="matrix(0.00282222,0,0,-0.00282222,1.51271,0)"
           id="path17935" />
        <path
           d="M 220,441 V 0 m 0,315 95,95 63,31 h 94 l 64,-31 31,-95 V 0"
           style="stroke-width:0.9689in"
           transform="matrix(0.00282222,0,0,-0.00282222,3.2004,0)"
           id="path17937" />
        <path
           d="M 567,441 V -63 l -31,-95 -32,-31 -63,-31 h -95 l -62,31 m 283,535 -63,64 -63,31 H 346 L 284,410 220,346 189,252 V 189 L 220,94.5 284,31.5 346,0 h 95 l 63,31.5 63,63"
           style="stroke-width:0.9689in"
           transform="matrix(0.00282222,0,0,-0.00282222,4.88809,0)"
           id="path17939" />
        <path
           d="M 220,662 V 0 m 0,662 h 221 l 95,-32 62,-63 32,-63 32,-94 V 252 L 630,158 598,94.5 536,31.5 441,0 H 220"
           style="stroke-width:0.9689in"
           transform="matrix(0.00282222,0,0,-0.00282222,7.64257,0)"
           id="path17941" />
        <path
           d="M 378,662 315,630 252,567 220,504 189,410 V 252 l 31,-94 32,-63.5 63,-63 L 378,0 h 126 l 63,31.5 63,63 32,63.5 31,94 v 158 l -31,94 -32,63 -63,63 -63,32 H 378"
           style="stroke-width:0.9689in"
           transform="matrix(0.00282222,0,0,-0.00282222,9.51088,0)"
           id="path17943" />
        <path
           d="M 158,662 315,0 M 472,662 315,0 M 472,662 630,0 M 788,662 630,0"
           style="stroke-width:0.9689in"
           transform="matrix(0.00282222,0,0,-0.00282222,11.4667,0)"
           id="path17945" />
        <path
           d="M 220,662 V 0 M 220,662 662,0 m 0,662 V 0"
           style="stroke-width:0.9689in"
           transform="matrix(0.00282222,0,0,-0.00282222,13.6003,0)"
           id="path17947" />
        <path
           d="m 220,378 -31,-32 31,-31 32,31 -32,32 m 0,-220 -31,-32 31,-31.5 32,31.5 -32,32"
           style="stroke-width:0.9689in"
           transform="matrix(0.00282222,0,0,-0.00282222,15.5561,0)"
           id="path17949" />
      </g>
      <g
         transform="translate(20,84.9722)"
         id="g17969">
        <path
           d="M 472,662 V 158 L 441,63 410,31.5 346,0 H 284 L 220,31.5 189,63 158,158 v 62"
           style="stroke-width:0.9689in"
           transform="scale(0.00282222,-0.00282222)"
           id="path17953" />
        <path
           d="M 220,441 V 126 L 252,31.5 315,0 h 95 l 62,31.5 95,94.5 m 0,315 V 0"
           style="stroke-width:0.9689in"
           transform="matrix(0.00282222,0,0,-0.00282222,1.4224,0)"
           id="path17955" />
        <path
           d="m 536,346 -32,64 -94,31 h -95 l -95,-31 -31,-64 31,-62 64,-32 157,-32 63,-31 32,-63 V 94.5 L 504,31.5 410,0 h -95 l -95,31.5 -31,63"
           style="stroke-width:0.9689in"
           transform="matrix(0.00282222,0,0,-0.00282222,3.11009,0)"
           id="path17957" />
        <path
           d="M 252,662 V 126 L 284,31.5 346,0 h 64 M 158,441 h 220"
           style="stroke-width:0.9689in"
           transform="matrix(0.00282222,0,0,-0.00282222,4.6228,0)"
           id="path17959" />
        <path
           d="m 536,346 -32,64 -94,31 h -95 l -95,-31 -31,-64 31,-62 64,-32 157,-32 63,-31 32,-63 V 94.5 L 504,31.5 410,0 h -95 l -95,31.5 -31,63"
           style="stroke-width:0.9689in"
           transform="matrix(0.00282222,0,0,-0.00282222,6.75639,0)"
           id="path17961" />
        <path
           d="M 567,441 V 0 m 0,346 -63,64 -63,31 H 346 L 284,410 220,346 189,252 V 189 L 220,94.5 284,31.5 346,0 h 95 l 63,31.5 63,63"
           style="stroke-width:0.9689in"
           transform="matrix(0.00282222,0,0,-0.00282222,8.2691,0)"
           id="path17963" />
        <path
           d="M 158,441 346,0 M 536,441 346,0"
           style="stroke-width:0.9689in"
           transform="matrix(0.00282222,0,0,-0.00282222,9.95679,0)"
           id="path17965" />
        <path
           d="m 189,252 h 378 v 63 l -31,63 -32,32 -63,31 H 346 L 284,410 220,346 189,252 V 189 L 220,94.5 284,31.5 346,0 h 95 l 63,31.5 63,63"
           style="stroke-width:0.9689in"
           transform="matrix(0.00282222,0,0,-0.00282222,11.3792,0)"
           id="path17967" />
      </g>
    </g>
  </g>
</svg>
